<svg xmlns="http://www.w3.org/2000/svg" viewBox="0 0 50 50" width="100" height="100"><path d="M25 2.958C12.846 2.958 2.958 12.845 2.958 25c0 12.155 9.888 22.042 22.042 22.042 12.154 0 22.042-9.887 22.042-22.042 0-12.155-9.888-22.042-22.042-22.042Zm-6.708 31.625h-3.834V20.208h3.834zm-1.917-17.25a1.916 1.916 0 1 1-.001-3.832 1.916 1.916 0 0 1 .001 3.832zM36.5 34.583h-3.833v-7.187a3.364 3.364 0 0 0-3.355-3.354 3.364 3.364 0 0 0-3.354 3.354v7.187h-3.833V20.208h3.833v1.74a6.206 6.206 0 0 1 4.313-1.74c3.44 0 6.229 2.79 6.229 6.23z" style="stroke-width:.958333;fill:#d3d3d3;fill-opacity:1"/></svg>